<svg viewBox="0 0 512 512" xmlns="http://www.w3.org/2000/svg">
  <!-- Sun core -->
  <circle cx="256" cy="256" r="120" fill="#FF9F43" stroke="#2D3436" stroke-width="16" stroke-linecap="round" stroke-linejoin="round"/>
  
  <!-- Sun rays (rounded rectangles) -->
  <g stroke="#FFFFFF" stroke-width="8" stroke-linecap="round" stroke-linejoin="round">
    <rect x="246" y="116" width="20" height="80" rx="10" fill="#00D2D3" transform="rotate(0 256 256)"/>
    <rect x="246" y="116" width="20" height="80" rx="10" fill="#00D2D3" transform="rotate(45 256 256)"/>
    <rect x="246" y="116" width="20" height="80" rx="10" fill="#00D2D3" transform="rotate(90 256 256)"/>
    <rect x="246" y="116" width="20" height="80" rx="10" fill="#00D2D3" transform="rotate(135 256 256)"/>
    <rect x="246" y="116" width="20" height="80" rx="10" fill="#00D2D3" transform="rotate(180 256 256)"/>
    <rect x="246" y="116" width="20" height="80" rx="10" fill="#00D2D3" transform="rotate(225 256 256)"/>
    <rect x="246" y="116" width="20" height="80" rx="10" fill="#00D2D3" transform="rotate(270 256 256)"/>
    <rect x="246" y="116" width="20" height="80" rx="10" fill="#00D2D3" transform="rotate(315 256 256)"/>
  </g>
  
  <!-- Highlight (top‑left) -->
  <ellipse cx="200" cy="200" rx="60" ry="30" fill="#FFFFFF" opacity="0.3"/>
  
  <!-- Shadow (bottom‑right) -->
  <path d="M256 376 A120 120 0 0 0 376 256" fill="#2D3436" opacity="0.1"/>
</svg>