<svg viewBox="0 0 512 512" xmlns="http://www.w3.org/2000/svg">
  <!-- Background -->
  <circle cx="256" cy="256" r="240" fill="#6C5CE7"/>

  <!-- Highlight -->
  <ellipse cx="150" cy="150" rx="80" ry="40" fill="#FFFFFF" opacity="0.3"/>

  <!-- Tiger Head -->
  <rect x="126" y="126" width="260" height="260" rx="130" ry="130"
        fill="#FF9F43" stroke="#2D3436" stroke-width="16"
        stroke-linecap="round" stroke-linejoin="round"/>

  <!-- Ears -->
  <circle cx="170" cy="170" r="50" fill="#FF9F43"
          stroke="#2D3436" stroke-width="16"
          stroke-linecap="round" stroke-linejoin="round"/>
  <circle cx="342" cy="170" r="50" fill="#FF9F43"
          stroke="#2D3436" stroke-width="16"
          stroke-linecap="round" stroke-linejoin="round"/>

  <!-- Eyes -->
  <circle cx="210" cy="230" r="30" fill="#00D2D3"
          stroke="#FFFFFF" stroke-width="16"
          stroke-linecap="round" stroke-linejoin="round"/>
  <circle cx="302" cy="230" r="30" fill="#00D2D3"
          stroke="#FFFFFF" stroke-width="16"
          stroke-linecap="round" stroke-linejoin="round"/>
  <!-- Pupils -->
  <circle cx="210" cy="230" r="12" fill="#2D3436"/>
  <circle cx="302" cy="230" r="12" fill="#2D3436"/>

  <!-- Stripes -->
  <rect x="190" y="260" width="132" height="30" rx="15" ry="15"
        fill="#FFFFFF" stroke="#2D3436" stroke-width="8"
        stroke-linecap="round" stroke-linejoin="round"/>
  <rect x="170" y="300" width="172" height="30" rx="15" ry="15"
        fill="#FFFFFF" stroke="#2D3436" stroke-width="8"
        stroke-linecap="round" stroke-linejoin="round"/>
  <rect x="190" y="340" width="132" height="30" rx="15" ry="15"
        fill="#FFFFFF" stroke="#2D3436" stroke-width="8"
        stroke-linecap="round" stroke-linejoin="round"/>

  <!-- Nose -->
  <circle cx="256" cy="300" r="20" fill="#FF6B6B"
          stroke="#2D3436" stroke-width="8"
          stroke-linecap="round" stroke-linejoin="round"/>

  <!-- Mouth -->
  <path d="M236 320 Q256 350 276 320"
        fill="none" stroke="#2D3436" stroke-width="12"
        stroke-linecap="round" stroke-linejoin="round"/>

  <!-- Shadow -->
  <path d="M380 380 a30 30 0 0 1 -60 0 a30 30 0 0 1 60 0"
        fill="#2D3436" opacity="0.1"/>
</svg>