<svg viewBox="0 0 512 512" xmlns="http://www.w3.org/2000/svg">
  <!-- Shell -->
  <rect x="106" y="156" width="300" height="200" rx="50" ry="50"
        fill="#2ECC71"
        stroke="#2D3436" stroke-width="16"
        stroke-linecap="round" stroke-linejoin="round"/>
  <!-- Head -->
  <circle cx="380" cy="256" r="50"
          fill="#00D2D3"
          stroke="#2D3436" stroke-width="16"
          stroke-linecap="round" stroke-linejoin="round"/>
  <!-- Legs -->
  <rect x="150" y="200" width="60" height="30" rx="15" ry="15"
        fill="#FF9F43"
        stroke="#2D3436" stroke-width="16"
        stroke-linecap="round" stroke-linejoin="round"/>
  <rect x="302" y="200" width="60" height="30" rx="15" ry="15"
        fill="#FF9F43"
        stroke="#2D3436" stroke-width="16"
        stroke-linecap="round" stroke-linejoin="round"/>
  <rect x="150" y="282" width="60" height="30" rx="15" ry="15"
        fill="#FF9F43"
        stroke="#2D3436" stroke-width="16"
        stroke-linecap="round" stroke-linejoin="round"/>
  <rect x="302" y="282" width="60" height="30" rx="15" ry="15"
        fill="#FF9F43"
        stroke="#2D3436" stroke-width="16"
        stroke-linecap="round" stroke-linejoin="round"/>
  <!-- Tail -->
  <rect x="106" y="241" width="40" height="30" rx="10" ry="10"
        fill="#FF9F43"
        stroke="#2D3436" stroke-width="16"
        stroke-linecap="round" stroke-linejoin="round"/>
  <!-- Eyes -->
  <circle cx="360" cy="240" r="12" fill="#FFFFFF"/>
  <circle cx="400" cy="240" r="12" fill="#FFFFFF"/>
  <circle cx="360" cy="240" r="5" fill="#2D3436"/>
  <circle cx="400" cy="240" r="5" fill="#2D3436"/>
  <!-- Highlight -->
  <ellipse cx="200" cy="150" rx="80" ry="40"
           fill="#FFFFFF" opacity="0.3"/>
  <!-- Shadow -->
  <path d="M306 356 a50 50 0 0 1 100 0 v100 h-100 Z"
        fill="#000000" opacity="0.1"/>
</svg>