<svg viewBox="0 0 512 512" xmlns="http://www.w3.org/2000/svg">
  <!-- Body -->
  <ellipse cx="256" cy="256" rx="140" ry="120" fill="#FF9F43"/>
  
  <!-- Head -->
  <circle cx="256" cy="180" r="80" fill="#FF9F43"/>
  
  <!-- Ears -->
  <path d="M220 140 A40 40 0 0 0 180 100" fill="#FF9F43"/>
  <path d="M292 140 A40 40 0 0 1 332 100" fill="#FF9F43"/>
  
  <!-- Tongue -->
  <path d="M256 220 C256 240 240 260 220 280" fill="#FF6B6B"/>
  
  <!-- Eyes -->
  <circle cx="230" cy="160" r="20" fill="#2D3436"/>
  <circle cx="282" cy="160" r="20" fill="#2D3436"/>
  
  <!-- Nose -->
  <circle cx="256" cy="190" r="10" fill="#2D3436"/>
  
  <!-- Highlight -->
  <ellipse cx="180" cy="180" rx="40" ry="20" fill="#FFFFFF" opacity="0.3" transform="rotate(-45 180 180)"/>
  
  <!-- Shadow -->
  <path d="M256 496 A240 240 0 0 0 496 256" fill="#2D3436" opacity="0.1"/>
  
  <!-- Stroke -->
  <ellipse cx="256" cy="256" rx="140" ry="120" fill="none" stroke="#2D3436" stroke-width="16" stroke-linecap="round" stroke-linejoin="round"/>
  <circle cx="256" cy="180" r="80" fill="none" stroke="#2D3436" stroke-width="16" stroke-linecap="round" stroke-linejoin="round"/>
</svg>